:SAMPLES-PER-SECOND 30
:FULLY-SPECIFIED
:DEGREES
559
root  32.3772 37.4406 -3.3958 170.75 -75.243 -177.921
RightUpLeg  -16.8499 -4.87492 -7.75151
RightLeg  20.315 4.20558 1.6077
RightFoot  3.07167 -0.751471 6.08602
RightToes  5.47152e-009 0 -3.6325e-017
Spine  7.07925 -1.7018 12.0506
Spine1  15.1597 0.443683 -4.89988
HEad  -1.29572 -5.6158 -9.14071
LeftShoulder1  0.00991462 3.47684 -30.6538
LeftArm  -17.6151 8.19261 -38.2416
LeftForeArm  97.4028 -77.693 -117.226
LeftHand  -0.0340556 5.41121 -3.58619
RightShoulder  -0.587421 -5.28805 26.183
RightArm  -19.5697 -8.93273 39.1048
RightForeArm  115.61 69.7665 146.533
RightHand  -0.0330476 -4.1428 -1.09603
LeftUpLeg  13.3709 -6.41019 3.18065
LeftLeg  26.2306 -1.73299 -0.696521
LeftFoot  -23.2142 -0.223721 -3.66411
LeftToes  -4.29285e-010 1.49941e-010 2.15559e-012
560
root  31.4501 37.3657 -4.26536 165.384 -77.1739 -172.517
RightUpLeg  -16.4848 -6.9539 -6.13514
RightLeg  24.5512 3.90764 1.72289
RightFoot  -0.758191 -0.464413 4.96648
RightToes  5.47152e-009 0 -3.6325e-017
Spine  6.82222 -1.92094 13.2265
Spine1  15.3127 0.220029 -3.59291
HEad  -1.61504 -5.11114 -8.481
LeftShoulder1  -0.0112198 3.53419 -30.8213
LeftArm  -17.9272 8.63531 -38.514
LeftForeArm  94.638 -78.0098 -114.178
LeftHand  -0.0215218 5.08886 -3.98403
RightShoulder  -0.607844 -5.34645 26.2563
RightArm  -19.0366 -8.60883 39.3342
RightForeArm  115.147 70.3115 145.484
RightHand  -0.0337831 -4.63179 -1.35392
LeftUpLeg  9.22729 -5.9119 6.07093
LeftLeg  36.2046 -1.94048 -1.12673
LeftFoot  -18.2402 -0.363826 -8.13853
LeftToes  -4.29285e-010 1.49941e-010 2.15559e-012
561
root  30.544 37.4931 -5.0819 158.809 -79.5564 -165.609
RightUpLeg  -14.8957 -8.75757 -4.87649
RightLeg  25.8024 3.04311 1.3713
RightFoot  -3.21208 -0.318257 4.18501
RightToes  5.47152e-009 0 -3.6325e-017
Spine  6.40924 -2.34902 14.2984
Spine1  14.923 -0.181826 -3.04654
HEad  -1.81805 -4.35194 -7.55765
LeftShoulder1  -0.0161552 3.54743 -30.9382
LeftArm  -18.0288 8.97321 -38.7695
LeftForeArm  92.3454 -78.2282 -111.715
LeftHand  -0.0203801 5.05576 -4.03972
RightShoulder  -0.66409 -5.50745 26.4572
RightArm  -18.4411 -8.39502 39.1249
RightForeArm  114.372 70.7322 144.584
RightHand  -0.0297066 -4.86756 -0.761154
LeftUpLeg  3.07383 -5.7462 8.00524
LeftLeg  46.4033 0.217436 0.769062
LeftFoot  -6.67259 0.125915 -5.7401
LeftToes  -4.29285e-010 1.49941e-010 2.15559e-012
562
root  29.6938 37.688 -5.84805 151.34 -80.8293 -158.417
RightUpLeg  -12.2949 -9.52639 -3.61889
RightLeg  25.5488 2.14527 0.879017
RightFoot  -5.17999 -0.249478 3.98135
RightToes  5.47152e-009 0 -3.6325e-017
Spine  7.41608 -2.39119 15.4554
Spine1  13.6844 0.0949317 -3.24873
HEad  -2.74624 -4.66812 -5.66716
LeftShoulder1  0.0344726 3.41088 -30.9487
LeftArm  -18.0729 8.87011 -38.9349
LeftForeArm  91.1895 -78.394 -109.907
LeftHand  -0.0275266 5.23136 -4.37817
RightShoulder  -0.633617 -5.41557 26.4368
RightArm  -18.3755 -9.12035 38.8191
RightForeArm  114.293 70.434 145.148
RightHand  -0.034205 -4.55593 -1.53726
LeftUpLeg  -2.50997 -4.36063 9.10395
LeftLeg  54.7934 2.38764 4.01448
LeftFoot  3.43814 -0.151358 1.54324
LeftToes  -4.29285e-010 1.49941e-010 2.15559e-012
563
root  28.7894 38.0299 -6.55453 149.654 -82.1496 -157.074
RightUpLeg  -8.911 -11.5017 -3.76413
RightLeg  23.7435 2.70995 1.09873
RightFoot  -6.50818 -0.211463 3.96931
RightToes  5.47152e-009 0 -3.6325e-017
Spine  7.52336 -2.09525 15.4221
Spine1  13.6441 0.595906 -3.69891
HEad  -2.99085 -5.91807 -5.26581
LeftShoulder1  0.0574787 3.34902 -31.0213
LeftArm  -17.6515 8.26601 -38.8844
LeftForeArm  90.5438 -78.4864 -108.845
LeftHand  7.29769e-005 4.55435 -3.97363
RightShoulder  -0.592388 -5.29974 26.2317
RightArm  -18.7098 -9.68096 38.7418
RightForeArm  114.888 70.1882 145.685
RightHand  -0.0307008 -5.11166 -1.80495
LeftUpLeg  -6.73911 -2.15247 8.75072
LeftLeg  59.706 1.25056 2.86094
LeftFoot  0.860136 0.00999171 -0.152855
LeftToes  -4.29285e-010 1.49941e-010 2.15559e-012
564
root  27.8086 38.3635 -7.15405 151.188 -84.0381 -158.187
RightUpLeg  -6.14508 -13.816 -4.85688
RightLeg  21.7772 3.41899 1.63353
RightFoot  -7.65296 -0.187375 4.1965
RightToes  5.47152e-009 0 -3.6325e-017
Spine  5.89508 -2.05061 15.0804
Spine1  14.4348 0.685394 -4.41682
HEad  -3.26015 -5.73716 -4.78994
LeftShoulder1  -0.0284843 3.58073 -30.9609
LeftArm  -17.488 8.2176 -38.7403
LeftForeArm  90.3265 -78.4786 -108.819
LeftHand  -0.0126795 4.90855 -4.18825
RightShoulder  -0.486753 -4.99805 25.7468
RightArm  -18.8025 -10.1571 39.5477
RightForeArm  115.652 70.2003 145.756
RightHand  -0.0270343 -5.55483 -1.39302
LeftUpLeg  -11.2201 -0.067167 6.91426
LeftLeg  61.4994 -0.333867 -0.0502796
LeftFoot  -0.0963357 0.193905 -1.95262
LeftToes  -4.29285e-010 1.49941e-010 2.15559e-012
565
root  26.8606 38.6332 -7.75968 150.581 -85.2168 -157.418
RightUpLeg  -3.21577 -13.638 -5.2524
RightLeg  19.6525 2.33193 1.82128
RightFoot  -8.53013 -0.161869 4.22756
RightToes  5.47152e-009 0 -3.6325e-017
Spine  5.71156 -1.73294 15.0437
Spine1  13.9172 1.13175 -4.99745
HEad  -3.28553 -5.97699 -5.12173
LeftShoulder1  -0.0142724 3.54224 -30.6546
LeftArm  -17.0212 7.68273 -38.3526
LeftForeArm  88.2117 -78.5666 -107.136
LeftHand  -0.0491818 5.78353 -3.82024
RightShoulder  -0.481139 -4.98392 25.6636
RightArm  -18.8941 -10.7429 39.5547
RightForeArm  116.575 69.9965 146.239
RightHand  -0.0289572 -5.38296 -0.606465
LeftUpLeg  -14.749 2.49727 5.44784
LeftLeg  60.8431 -1.36212 -2.07168
LeftFoot  -0.796094 0.263391 -2.80814
LeftToes  -4.29285e-010 1.49941e-010 2.15559e-012
566
root  25.9021 38.8467 -8.33511 149.894 -86.5957 -156.534
RightUpLeg  -0.263919 -13.1072 -5.70481
RightLeg  17.3775 0.742795 2.04986
RightFoot  -9.40421 -0.135721 4.26378
RightToes  5.47152e-009 0 -3.6325e-017
Spine  5.27123 -1.35654 14.7328
Spine1  13.6026 1.53519 -5.57656
HEad  -4.28499 -5.54474 -4.35756
LeftShoulder1  0.0354389 3.40659 -30.2201
LeftArm  -16.8782 7.58909 -38.1949
LeftForeArm  88.8252 -78.5293 -107.747
LeftHand  -0.0370215 5.47123 -4.05196
RightShoulder  -0.489491 -5.00483 25.7753
RightArm  -18.991 -11.3436 39.391
RightForeArm  116.974 69.6168 146.958
RightHand  -0.0294114 -5.18113 -1.18266
LeftUpLeg  -17.7047 4.5659 3.50025
LeftLeg  57.7431 -1.34443 -1.77915
LeftFoot  -1.82085 0.271702 -3.11956
LeftToes  -4.29285e-010 1.49941e-010 2.15559e-012
567
root  24.9342 38.9813 -8.8214 163.617 -88.181 -170.478
RightUpLeg  2.81858 -13.3367 -6.97439
RightLeg  15.8004 0.104951 2.51971
RightFoot  -10.5271 -0.103038 4.41775
RightToes  5.47152e-009 0 -3.6325e-017
Spine  5.35557 -1.13237 13.7329
Spine1  13.3005 1.76864 -5.98714
HEad  -4.79188 -5.34105 -4.3899
LeftShoulder1  0.00803201 3.48132 -29.9771
LeftArm  -16.778 6.95991 -38.1566
LeftForeArm  89.4342 -78.4932 -108.327
LeftHand  -0.0355037 5.4336 -4.40206
RightShoulder  -0.504815 -5.04787 25.8764
RightArm  -19.0045 -11.3066 39.2827
RightForeArm  116.536 69.4042 147.27
RightHand  -0.0282642 -5.40701 -1.40359
LeftUpLeg  -19.2642 6.27311 0.909245
LeftLeg  52.1752 -1.15504 -1.15383
LeftFoot  -2.4798 0.213886 -2.57539
LeftToes  -4.29285e-010 1.49941e-010 2.15559e-012
568
root  23.9701 39.0713 -9.25062 -178.979 -89.8822 171.737
RightUpLeg  6.25554 -13.3115 -7.66405
RightLeg  13.8105 -1.31459 2.70422
RightFoot  -11.3562 -0.0766701 4.30237
RightToes  5.47152e-009 0 -3.6325e-017
Spine  5.37373 -1.18729 13.1642
Spine1  13.3624 1.73996 -6.63426
HEad  -5.69614 -5.06221 -4.38402
LeftShoulder1  0.0399362 3.39228 -29.6554
LeftArm  -16.9309 6.43444 -38.1783
LeftForeArm  90.5833 -78.3599 -109.966
LeftHand  -0.0464179 5.74559 -3.49412
RightShoulder  -0.509865 -5.06459 25.8546
RightArm  -19.354 -11.049 39.4201
RightForeArm  117.798 69.3671 147.481
RightHand  -0.0264079 -7.07161 -0.797853
LeftUpLeg  -19.7176 7.18472 -1.25151
LeftLeg  44.4244 -0.831976 -0.468836
LeftFoot  -3.15177 0.23352 -2.9974
LeftToes  -4.29285e-010 1.49941e-010 2.15559e-012
